# xmcd
#
# Track frame offsets: 
#        183
#        15265
#        27973
#        39700
#        54615
#        66958
#        80393
#        91043
#        104780
#        118310
#        129030
#        141293
#        154133
#        168080
#        183650
#        196800
#
# Disc length: 2784 seconds
#
# Revision: 2
# Processed by: cddbd v1.5.1PL0 Copyright (c) Steve Scherf et al.
# Submitted via: ExactAudioCopy v0.90b4
#
DISCID=d20ade10
DTITLE=Henk Wijngaard - Het Beste Van Henk Wijngaard
DYEAR=1989
DGENRE=National Folk
TTITLE0='n Sneeuwwitte Bruidsjurk
TTITLE1=Ik Voel Me Rijk Als Een Koning
TTITLE2=Als Chauffeur Ben Ik Geboren
TTITLE3=Zo, Zoals Je Bent
TTITLE4=Trucker Olé
TTITLE5=Bak Roest Op 18 Wielen
TTITLE6=Gooi Nog Eens 'n Blok Op Het Vuur, Schat
TTITLE7=Nachtrijders
TTITLE8=Met De Vlam In De Pijp
TTITLE9=Ik Heb M'n Wagen Volgeladen
TTITLE10=Asfalt-Rocker
TTITLE11=Container-Song
TTITLE12=Truckcar-Race
TTITLE13=Aan Elke Vrouw Waar 'k Eens Van Hield
TTITLE14=Oh Suzanne
TTITLE15=Kilometer-Vreters
EXTD=Dutch-music\nCompilation 1989
EXTT0=
EXTT1=
EXTT2=
EXTT3=
EXTT4=
EXTT5=
EXTT6=
EXTT7=
EXTT8=
EXTT9=
EXTT10=
EXTT11=
EXTT12=
EXTT13=
EXTT14=
EXTT15=
PLAYORDER=
